<svg xmlns="http://www.w3.org/2000/svg" width="861.4" height="174.4" viewBox="0 0 861.4 174.4">
  <g id="Group_555" data-name="Group 555" transform="translate(-597 -370)">
    <path id="Path_32" data-name="Path 32" d="M969.5,250v37.2H558.533V404" transform="translate(46 121)" fill="none" stroke="#b721ff" stroke-linecap="round" stroke-linejoin="bevel" stroke-width="2"/>
    <path id="Path_33" data-name="Path 33" d="M969.5,287.333V406.3" transform="translate(46 121)" fill="none" stroke="#b721ff" stroke-width="2"/>
    <path id="Path_34" data-name="Path 34" d="M973.467,289.333H1408.7V406" transform="translate(42 119)" fill="none" stroke="#b721ff" stroke-linecap="round" stroke-linejoin="bevel" stroke-width="2"/>
    <g id="Path_35" data-name="Path 35" transform="translate(597 529)" fill="none">
      <path d="M7.7,0A7.7,7.7,0,1,1,0,7.7,7.7,7.7,0,0,1,7.7,0Z" stroke="none"/>
      <path d="M 7.699981212615967 2.000000953674316 C 4.557001113891602 2.000000953674316 2.000000953674316 4.557001113891602 2.000000953674316 7.699981212615967 C 2.000000953674316 10.84296131134033 4.557001113891602 13.39996147155762 7.699981212615967 13.39996147155762 C 10.84296131134033 13.39996147155762 13.39996147155762 10.84296131134033 13.39996147155762 7.699981212615967 C 13.39996147155762 4.557001113891602 10.84296131134033 2.000000953674316 7.699981212615967 2.000000953674316 M 7.699981212615967 9.5367431640625e-07 C 11.952561378479 9.5367431640625e-07 15.39996147155762 3.44740104675293 15.39996147155762 7.699981212615967 C 15.39996147155762 11.952561378479 11.952561378479 15.39996147155762 7.699981212615967 15.39996147155762 C 3.44740104675293 15.39996147155762 9.5367431640625e-07 11.952561378479 9.5367431640625e-07 7.699981212615967 C 9.5367431640625e-07 3.44740104675293 3.44740104675293 9.5367431640625e-07 7.699981212615967 9.5367431640625e-07 Z" stroke="none" fill="#56f9b2"/>
    </g>
    <g id="Path_36" data-name="Path 36" transform="translate(1008 529)" fill="none">
      <path d="M7.7,0A7.7,7.7,0,1,1,0,7.7,7.7,7.7,0,0,1,7.7,0Z" stroke="none"/>
      <path d="M 7.699981212615967 2.000000953674316 C 4.557001113891602 2.000000953674316 2.000000953674316 4.557001113891602 2.000000953674316 7.699981212615967 C 2.000000953674316 10.84296131134033 4.557001113891602 13.39996147155762 7.699981212615967 13.39996147155762 C 10.84296131134033 13.39996147155762 13.39996147155762 10.84296131134033 13.39996147155762 7.699981212615967 C 13.39996147155762 4.557001113891602 10.84296131134033 2.000000953674316 7.699981212615967 2.000000953674316 M 7.699981212615967 9.5367431640625e-07 C 11.952561378479 9.5367431640625e-07 15.39996147155762 3.44740104675293 15.39996147155762 7.699981212615967 C 15.39996147155762 11.952561378479 11.952561378479 15.39996147155762 7.699981212615967 15.39996147155762 C 3.44740104675293 15.39996147155762 9.5367431640625e-07 11.952561378479 9.5367431640625e-07 7.699981212615967 C 9.5367431640625e-07 3.44740104675293 3.44740104675293 9.5367431640625e-07 7.699981212615967 9.5367431640625e-07 Z" stroke="none" fill="#56f9b2"/>
    </g>
    <g id="Path_37" data-name="Path 37" transform="translate(1443 529)" fill="none">
      <path d="M7.7,0A7.7,7.7,0,1,1,0,7.7,7.7,7.7,0,0,1,7.7,0Z" stroke="none"/>
      <path d="M 7.699981212615967 2.000000953674316 C 4.557001113891602 2.000000953674316 2.000000953674316 4.557001113891602 2.000000953674316 7.699981212615967 C 2.000000953674316 10.84296131134033 4.557001113891602 13.39996147155762 7.699981212615967 13.39996147155762 C 10.84296131134033 13.39996147155762 13.39996147155762 10.84296131134033 13.39996147155762 7.699981212615967 C 13.39996147155762 4.557001113891602 10.84296131134033 2.000000953674316 7.699981212615967 2.000000953674316 M 7.699981212615967 9.5367431640625e-07 C 11.952561378479 9.5367431640625e-07 15.39996147155762 3.44740104675293 15.39996147155762 7.699981212615967 C 15.39996147155762 11.952561378479 11.952561378479 15.39996147155762 7.699981212615967 15.39996147155762 C 3.44740104675293 15.39996147155762 9.5367431640625e-07 11.952561378479 9.5367431640625e-07 7.699981212615967 C 9.5367431640625e-07 3.44740104675293 3.44740104675293 9.5367431640625e-07 7.699981212615967 9.5367431640625e-07 Z" stroke="none" fill="#56f9b2"/>
    </g>
  </g>
</svg>
