<svg xmlns="http://www.w3.org/2000/svg" width="250.913" height="217.766" viewBox="0 0 250.913 217.766">
  <g id="undraw_security_re_a2rk" transform="translate(0.04)">
    <path id="Path_135" data-name="Path 135" d="M835.585,653.192l6.758-2.144a22.877,22.877,0,0,0-.163-11.006c-2.715,6.037-10.681,7.516-15.22,12.335a13.761,13.761,0,0,0-3.52,11.4l-1.422,4.824a23.058,23.058,0,0,0,16.782-9.546,22.265,22.265,0,0,0,2.61-4.941C838.528,653.822,835.585,653.192,835.585,653.192Z" transform="translate(-603.308 -451.368)" fill="#f2f2f2"/>
    <path id="Path_136" data-name="Path 136" d="M825.184,629.757l5.093-4.933a22.876,22.876,0,0,0-5.054-9.778c.262,6.615-6.208,11.491-8.121,17.828a13.761,13.761,0,0,0,1.932,11.77l.878,4.951a23.058,23.058,0,0,0,10.763-16.029,22.268,22.268,0,0,0,.132-5.586C828.1,629.008,825.184,629.757,825.184,629.757Z" transform="translate(-600.129 -436.853)" fill="#f2f2f2"/>
    <path id="Path_137" data-name="Path 137" d="M491.544,222.446H301.063a.758.758,0,1,1,0-1.515H491.544a.758.758,0,1,1,0,1.515Z" transform="translate(-300.345 -207.986)" fill="#3f3d56"/>
    <ellipse id="Ellipse_3" data-name="Ellipse 3" cx="4.439" cy="4.538" rx="4.439" ry="4.538" transform="translate(9.245 0)" fill="#3f3d56"/>
    <ellipse id="Ellipse_4" data-name="Ellipse 4" cx="4.439" cy="4.538" rx="4.439" ry="4.538" transform="translate(24.58 0)" fill="#3f3d56"/>
    <ellipse id="Ellipse_5" data-name="Ellipse 5" cx="4.439" cy="4.538" rx="4.439" ry="4.538" transform="translate(39.916 0)" fill="#3f3d56"/>
    <path id="Path_138" data-name="Path 138" d="M718.154,192.742H707.26a.825.825,0,1,0,0,1.65h10.894a.825.825,0,1,0,0-1.65Z" transform="translate(-536.188 -191.617)" fill="#3f3d56"/>
    <path id="Path_139" data-name="Path 139" d="M718.154,200.126H707.26a.825.825,0,1,0,0,1.65h10.894a.825.825,0,1,0,0-1.65Z" transform="translate(-536.188 -195.905)" fill="#3f3d56"/>
    <path id="Path_140" data-name="Path 140" d="M718.154,207.5H707.26a.825.825,0,1,0,0,1.65h10.894a.825.825,0,1,0,0-1.65Z" transform="translate(-536.188 -200.188)" fill="#3f3d56"/>
    <circle id="Ellipse_6" data-name="Ellipse 6" cx="5.488" cy="5.488" r="5.488" transform="translate(9.245 34.259)" fill="#e6e7e8"/>
    <path id="Path_141" data-name="Path 141" d="M467.7,309.312H324.084a1.634,1.634,0,1,1,0-3.269H467.7a1.634,1.634,0,0,1,0,3.269Z" transform="translate(-313.204 -257.412)" fill="#e6e7e8"/>
    <path id="Path_142" data-name="Path 142" d="M430.031,324.714H324.083a1.634,1.634,0,1,1,0-3.269H430.031a1.634,1.634,0,1,1,0,3.269Z" transform="translate(-313.204 -266.356)" fill="#e6e7e8"/>
    <circle id="Ellipse_7" data-name="Ellipse 7" cx="5.488" cy="5.488" r="5.488" transform="translate(9.245 119.922)" fill="#e6e7e8"/>
    <path id="Path_143" data-name="Path 143" d="M467.7,513.617H324.084a1.634,1.634,0,0,1,0-3.269H467.7a1.828,1.828,0,0,1,1.725,1.76,1.614,1.614,0,0,1-1.725,1.508Z" transform="translate(-313.204 -376.054)" fill="#e6e7e8"/>
    <path id="Path_144" data-name="Path 144" d="M430.031,529.019H324.083a1.634,1.634,0,1,1,0-3.269H430.031a1.634,1.634,0,0,1,0,3.269Z" transform="translate(-313.204 -384.998)" fill="#e6e7e8"/>
    <circle id="Ellipse_8" data-name="Ellipse 8" cx="5.488" cy="5.488" r="5.488" transform="translate(9.245 73.861)" fill="#e6e7e8"/>
    <path id="Path_145" data-name="Path 145" d="M467.7,403.763H324.084a1.634,1.634,0,1,1,0-3.269H467.7a1.634,1.634,0,0,1,0,3.269Z" transform="translate(-313.204 -312.261)" fill="#e6e7e8"/>
    <path id="Path_146" data-name="Path 146" d="M447.7,419.165H324.083a1.634,1.634,0,0,1,0-3.269H447.7a1.634,1.634,0,0,1,0,3.269Z" transform="translate(-313.204 -321.205)" fill="#e6e7e8"/>
    <path id="Path_147" data-name="Path 147" d="M439.307,434.567H324.083a1.634,1.634,0,1,1,0-3.269H439.307a1.634,1.634,0,1,1,0,3.269Z" transform="translate(-313.204 -330.149)" fill="#e6e7e8"/>
    <circle id="Ellipse_9" data-name="Ellipse 9" cx="40.643" cy="40.643" r="40.643" transform="translate(87.844 95.384)" fill="#6c63ff"/>
    <circle id="Ellipse_10" data-name="Ellipse 10" cx="5.806" cy="5.806" r="5.806" transform="translate(122.625 138.595)" fill="#3f3d56"/>
    <circle id="Ellipse_11" data-name="Ellipse 11" cx="2.68" cy="2.68" r="2.68" transform="translate(125.752 141.721)" fill="#6c63ff"/>
    <path id="Path_148" data-name="Path 148" d="M591.62,529.476H570.176a8.018,8.018,0,0,1-8.009-8.009v-9.832a8.018,8.018,0,0,1,8.009-8.009H591.62a8.018,8.018,0,0,1,8.009,8.009v9.832A8.018,8.018,0,0,1,591.62,529.476Zm-21.444-25.011a7.179,7.179,0,0,0-7.171,7.171v9.832a7.178,7.178,0,0,0,7.171,7.17H591.62a7.178,7.178,0,0,0,7.17-7.17v-9.832a7.179,7.179,0,0,0-7.17-7.171Z" transform="translate(-452.41 -372.151)" fill="#fff"/>
    <path id="Path_149" data-name="Path 149" d="M571.96,527.038h19.034a7.523,7.523,0,0,0,7.523-7.523v-8.228a7.489,7.489,0,0,0-.5-2.669,7.5,7.5,0,0,1,2.99,5.994v8.228a7.523,7.523,0,0,1-7.523,7.523H574.454a7.519,7.519,0,0,1-7.027-4.854A7.479,7.479,0,0,0,571.96,527.038Z" transform="translate(-455.465 -375.049)" fill="#3f3d56"/>
    <path id="Path_150" data-name="Path 150" d="M407.35,481.555h-4.677l-2.225-18.041h6.9Z" transform="translate(-232.567 -269.167)" fill="#a0616a"/>
    <path id="Path_151" data-name="Path 151" d="M697.727,697.472H683.344v-.182a5.6,5.6,0,0,1,5.6-5.6h0l2.627-1.993,4.9,1.993h1.256Z" transform="translate(-522.779 -480.204)" fill="#2f2e41"/>
    <path id="Path_152" data-name="Path 152" d="M495.837,481.555h4.677l2.225-18.041h-6.9Z" transform="translate(-287.959 -269.167)" fill="#a0616a"/>
    <path id="Path_153" data-name="Path 153" d="M795.79,697.472h14.383v-.182a5.6,5.6,0,0,0-5.6-5.6h0l-2.627-1.993-4.9,1.993H795.79Z" transform="translate(-588.077 -480.204)" fill="#2f2e41"/>
    <path id="Path_154" data-name="Path 154" d="M700.29,539.958c.069-1.029.618-6.722.618-6.722l1.316-12.073,2.319-32,.151-2.095,12.146-2.332,8.3-3.979,9.867,3.154,7.683,2.881s.013,1.233.072,2.723a20.388,20.388,0,0,0,.546,4.963c.549,1.1.411,7,.411,7s.546,12,1.233,13.313a9.138,9.138,0,0,1,.618,4.6c-.207.549.687,14.958.687,14.958s2.3,25.5.856,29.342-6.884,1.326-6.884,1.326.263-1.026-1.315-1.51-6.387-36.638-6.387-36.638-.895-7.413-1.717-9.538-1.579-8.094-1.579-8.094-5.078-9.88-5.144-12.077c0,0-.664-2.056-1.293.207s-2.48,7.683-2.48,7.683L718.51,511.7l-2.124,9.945-1.375,8.373s-2.059,11.113-2.388,11.593,0,10.633,0,10.633-1.592,8.646-3.841,10.156-8.21.024-8.21.024S700.22,540.987,700.29,539.958Z" transform="translate(-532.614 -358.867)" fill="#2f2e41"/>
    <path id="Path_155" data-name="Path 155" d="M408.065,191.665l2.7,8.133-3.332,3.966,1.467,1.51-1.082,2.134L405,229.779l15.471,5.867,5.21-6.532,4.108,6.532,17.9-4.374-4.565-28.527V200.88l-1.289-3.6v-7.624l3.4-22.693L435.077,163.4l-4.857-3.844-1.572,5.407-6.693-1.19-.174-4.062-5.121,4.838-4.312,1.23-5.163,1.181-.658,1.644,1.315-.329-.213,21.394Z" transform="translate(-235.208 -92.657)" fill="#2f2e41"/>
    <path id="Path_156" data-name="Path 156" d="M693.461,446.175l2.6-25.15.686-10.351-7.272-1.315s.288,7.4-.665,11.577c-.94,4.121-.125,24.687-.067,25.237a3.538,3.538,0,1,0,4.72,0Z" transform="translate(-525.228 -317.409)" fill="#a0616a"/>
    <path id="Path_157" data-name="Path 157" d="M683.955,400.162l2.023.418,6.94,1.437.385.079.819-3.256.951-1.013,1.809-9.478.1-.493,2.733-5.841,1.891-17.556-7.031,1.263c-.036.036-.069.076-.1.115-1.01,1.145-1.73,2.736-2.907,4.338-3.831,5.213-6.772,17.878-6.656,24.818,0,.112-.112.233-.25.358A3.849,3.849,0,0,0,683.955,400.162Z" transform="translate(-522.816 -291.335)" fill="#2f2e41"/>
    <path id="Path_158" data-name="Path 158" d="M804.9,446.175l-2.6-25.15-.686-10.351,7.273-1.315s-.288,7.4.664,11.577c.94,4.121.125,24.687.067,25.236a3.538,3.538,0,1,1-4.719,0Z" transform="translate(-591.463 -317.409)" fill="#a0616a"/>
    <path id="Path_159" data-name="Path 159" d="M804.553,400.162l-2.023.418-6.939,1.437-.385.079-.819-3.256-.95-1.013-1.809-9.478-.1-.493-2.733-5.841.625-17.556,4.516,1.263c.036.036.069.076.1.115,1.01,1.145,1.73,2.736,2.907,4.338,3.832,5.213,6.772,17.878,6.656,24.818,0,.112.112.234.25.359A3.849,3.849,0,0,1,804.553,400.162Z" transform="translate(-584.018 -291.335)" fill="#2f2e41"/>
    <path id="Path_160" data-name="Path 160" d="M729.294,358.438l3.3-8.665,8.439-.155,2.8,8.82L753.9,414.667s-30.836,8.587-30.524-1.735c.329-10.853,1.813-25.27,1.813-25.27Z" transform="translate(-546.026 -282.717)" fill="#6c63ff"/>
    <circle id="Ellipse_12" data-name="Ellipse 12" cx="9.941" cy="9.941" r="9.941" transform="translate(180.661 44.75)" fill="#a0616a"/>
    <path id="Path_161" data-name="Path 161" d="M728.986,294.15c1.619-1.762,3.643-4.986,9.775-6.34,7.577-1.673,11.157,5.171,9.246,5.284,5.587,1.692,2,13.254.4,12.284-.014-.01-.027-.02-.04-.031a7.871,7.871,0,0,1-3.143-5.37l-.3-2.736c-.043,2.226-2.319,2.521-4.643,1.7a2.916,2.916,0,0,1,2.06-2.029,9.974,9.974,0,0,1-5.858,2.549,3.988,3.988,0,0,1,1.939-2.668l-.092-.09a9.583,9.583,0,0,1-3.073,1.74,3.621,3.621,0,0,1-3.695-.834,2.728,2.728,0,0,1-.525-.945c.19,1.763-.993,3.776-1.911,3.43C728.354,299.946,727.909,295.323,728.986,294.15Z" transform="translate(-548.911 -246.671)" fill="#2f2e41"/>
    <path id="Path_162" data-name="Path 162" d="M734.578,707.544a.5.5,0,0,1-.5.5H616.556a.5.5,0,0,1,0-1H734.079a.5.5,0,0,1,.5.5Z" transform="translate(-483.705 -490.277)" fill="#ccc"/>
    <path id="Path_163" data-name="Path 163" d="M594.542,461.922a11.669,11.669,0,0,0-9.448,4.5,12.211,12.211,0,0,1,7.284-2.337c6.156,0,11.164,4.312,11.164,9.612V478.1h2.164v-6.569C605.706,466.234,600.7,461.922,594.542,461.922Z" transform="translate(-465.724 -347.932)" fill="#3f3d56"/>
    <path id="Path_164" data-name="Path 164" d="M601.842,479.834H575.88V472.2c0-6.163,5.823-11.177,12.981-11.177s12.981,5.014,12.981,11.177ZM576.719,479H601v-6.8c0-5.7-5.447-10.338-12.142-10.338s-12.142,4.638-12.142,10.338Z" transform="translate(-460.374 -347.408)" fill="#fff"/>
    <path id="Path_165" data-name="Path 165" d="M601.155,480.957h-13.3A2.259,2.259,0,0,1,585.6,478.7v-3.04c0-4.238,3.995-7.686,8.905-7.686s8.905,3.448,8.905,7.686v3.04A2.259,2.259,0,0,1,601.155,480.957Zm-6.649-12.144c-4.448,0-8.067,3.072-8.067,6.848v3.04a1.42,1.42,0,0,0,1.418,1.418h13.3a1.419,1.419,0,0,0,1.418-1.418v-3.04c0-3.776-3.619-6.848-8.067-6.848Z" transform="translate(-466.018 -351.447)" fill="#fff"/>
  </g>
</svg>
